<?xml version="1.0" encoding="UTF-8"?><svg id="a" xmlns="http://www.w3.org/2000/svg" viewBox="0 0 768 768"><defs><style>.b{fill:#edf3f4;}.c{fill:#fbfcfd;}.d{fill:#0f7a9a;}.e{fill:#aa2b27;}.f{fill:#d2e6ec;}.g{fill:#0d7a9a;}.h{fill:#fdfdfd;}.i{fill:#84a9b6;}.j{fill:#b6ced6;}.k{fill:#fbfcfc;}.l{fill:#442b28;}.m{fill:#b9d2d8;}.n{fill:#f8fbfc;}.o{fill:#605f5d;}.p{fill:#b5cdd5;}.q{fill:#fefefe;}</style></defs><path class="g" d="M384,767.93c-126.85,0-253.7-.01-380.56,.07-2.81,0-3.45-.63-3.44-3.44C.08,510.85,.08,257.15,0,3.44,0,.63,.63,0,3.44,0c253.7,.08,507.41,.08,761.11,0,2.81,0,3.45,.63,3.44,3.44-.08,253.7-.08,507.41,0,761.11,0,2.81-.63,3.45-3.44,3.44-126.85-.08-253.7-.07-380.56-.07ZM215.37,213.02l-.11-.16c-.13-.18-.25-.36-.38-.54-.11-.09-.19-.2-.25-.33-.11-1.13-.76-1.9-1.69-2.47l-.11-.13c-.21-.24-.43-.48-.64-.71l-.05-.07c-.15-.27-.3-.54-.46-.82l-.06-.21c-.13-1-.74-1.61-1.61-2.02-.1-.17-.18-.34-.24-.53,.1-.45-.06-.76-.49-.92l-.07-.08-.7-.61-.11-.08c-.57-1.75-1.52-3.23-3.03-4.31l-.06-.12c-.16-.27-.32-.55-.49-.82l-.1-.17c-.17-.21-.33-.41-.5-.62l-.14-.16c-.78-1.58-1.45-3.26-3.17-4.13l-.09-.1c-.22-.23-.44-.46-.66-.69l-.1-.1c-.17-.24-.33-.49-.5-.74-2.39-3.02-4.82-6.01-7.15-9.07-1.64-2.15-3.1-2.53-5.57-.81-7.87,5.5-15.95,10.69-23.94,16.01-34.36,22.87-68.73,45.72-103.07,68.61-13.9,9.27-27.73,18.63-41.59,27.95l-.14,.07c-1.54,.67-2.91,1.58-4.09,2.78-.22-.05-.37,.03-.45,.25-1.51,.67-2.9,1.52-4.01,2.76-.22-.05-.39,.02-.49,.23-.7,.48-1.4,.95-2.09,1.43,0,0-.12,.05-.12,.05-.27,.2-.54,.41-.81,.61,0,0,0,0,0,0-.37,.24-.74,.47-1.11,.71-1.09,.29-1.42,.77-.4,1.59,2.71,4.61,5.36,9.25,8.13,13.82,34.31,56.58,68.65,113.14,102.97,169.71,4.25,7,4.2,7.05,11.49,3.1,1.86-1.01,3.65-2.13,5.43-3.27,11.34-7.2,22.57-14.58,34.02-21.6,22.91-14.05,45.94-27.91,68.92-41.86,1.05-.01,1.72-.66,2.33-1.41h-.03c3.3-1.55,6.21-3.7,9.1-5.88,2.73-1.17,5.21-2.76,7.55-4.57,.23,0,.4-.09,.52-.3,2.63-.91,4.78-2.6,6.99-4.19,.25,0,.41-.11,.5-.33,2.41-1.19,5.11-1.93,6.82-4.25h0c6.83-3.46,13.02-7.98,19.53-11.95h-.01c2.72-1.14,5.28-2.54,7.46-4.56h0c4.31-2.01,8.16-4.77,12.12-7.36h0c3.3-1.36,5.55-4.06,8.18-6.3,1.83-1.57,2.17-3.24,1.05-5.25-4.87-8.78-9.91-17.45-15.98-25.47l.02,.04c-.99-2.71-2.53-5.11-4.09-7.51-6.96-10.73-13.9-21.48-20.82-32.23-.57-.89-1.73-1.88-1.02-2.96,1.48-2.22,3.8-3.66,6.18-4.62,1.65-.66,2.52,1.14,3.27,2.45,.33,.58,.79,1.06,1.48,.82,2.04-.71,4,.02,6,.22,1.35-.76,.97-5.48,3.75-2.31,1.55,1.78,2.77,1.73,4.47,1.77l.12,.14c.38,.66,.71,.42,1.03-.05,.99-3.36,3.78-3.07,6.38-3.14l.16,.1c.84,.73,1.69,.54,2.54,.03,0,0,.1-.02,.1-.02,.29-.03,.59-.05,.88-.08,.29,.04,.58,.08,.87,.13,.21,.2,.42,.4,.64,.6,.77,.91,1,2.54,2.57,2.39,2.09-.19,3.73,.62,5.59,1.46,5.83,2.62,9.98,2.27,12.44-1.72,3.61-5.86,8.55-6.4,14.45-5.2,8.76,1.78,17.49,3.89,26.33,5.15,15.35,2.19,30.8,3.74,46.03,6.73,2.9,.57,5.4-.13,7.83-1.56,4.2-1.57,9.33,.29,12.94-3.49,1.18-.19,2.37-.38,3.55-.57,1.13-.22,2.26-.43,3.39-.65,1.43-.07,2.86-.14,4.29-.21,1.07,.09,2.19,.64,3.15-.31,1.03-.21,2.05-.42,3.08-.63,1.15-.15,2.3-.29,3.45-.44,.8-.26,1.59-.51,2.39-.77,.86,.09,1.69,.03,2.36-.62l.27,.05,.26-.08c2.14,1.57,4.38,1.23,6.66,.38,2.7,3.58,1.15,7.64,1.38,11.53,.67,11.43-2.26,22.26-5.2,33.09-2.96,10.87-8.05,20.91-12.3,31.27-1.12,2.74-3.07,5.38-2.47,8.66-2.76,3.16-5.48,6.35-8.3,9.46-11.83,13.09-23.79,26.08-35.52,39.26-12.4,13.93-24.56,28.08-36.9,42.07-7.73,8.76-15.14,17.78-22.25,27.05-3.81,4.97-5.14,11.36-8.63,16.48-8.8,12.88-12.71,27.26-14.53,42.52-.85,7.14-2.11,14.27-3.25,21.38-1.3,8.12-3.11,16.14-2.56,24.45,.11,1.71,.41,3.57-1.5,4.66-.85,.05-1.57,.28-1.81,1.23-4.95,2.72-8.66,6.91-12.68,10.72-6.57,6.22-13.12,12.47-19.01,19.36-.57,.66-1.47,1.3-.85,2.19,.56,.8,1.61,.41,2.45,.25,.48-.09,.9-.42,1.37-.58,9.21-3.27,18.42-6.54,27.63-9.8,1.32,.2,1.83-1.2,2.92-1.46,.49,0,1.03,.16,1.47,0,8.81-2.97,17.46-6.43,26.76-7.76,1.71-.25,2.84-1.39,3.46-3.41,1.25-4.06,1.4-8.29,2.7-12.36,2.94-9.2,5.39-18.56,8.09-27.84,3.3-11.32,6.97-22.53,9.88-33.95,2.22-8.73,6.93-15.56,13.61-21.22,8.34-7.07,16.67-14.16,25.28-20.9,9.87-7.73,19.99-15.15,30.1-22.56,7.93-5.8,15.94-11.49,24.07-17.01,3.38-2.29,6.4-5.56,10.39-6.45,11.1-2.48,22.37-1.8,33.46,.12,9.91,1.72,19.38,5.24,28.9,8.5,12.32,4.22,24.66,8.31,36.68,13.42,21.24,9.04,42.03,19.07,63.05,28.56,2.36,1.07,2.47,2.1,1.23,3.88-.63,.91-1.4,1.74-2.14,2.58-7.47,8.49-14.96,16.95-22.38,25.48-.96,1.1-1.62,2.52-2.22,3.88-1.97,4.47-2.13,9.41-3.55,14.02-5.35,17.33-10.74,34.64-16.26,51.91-.98,3.06-1.11,6.47-3.19,9.11-3.22,4.08-3.26,11.03,.1,14.87,.5,.57,1.15,.97,1.1,1.82-.25,4.68,1.67,9.24,.75,13.98-.35,1.8,.39,3.3,2.31,3.69,3.44,.7,6.62,2.1,9.91,3.24,11.03,3.81,22.14,7.43,33.08,11.48,11.42,4.22,22.66,8.94,33.98,13.43,11.51,4.57,22.91,9.43,34.56,13.63,2.19,.79,4.48,2.67,7.62,1.47-.9-1.06-1.48-1.83-2.16-2.51-8.11-8.19-16.56-16.02-25.12-23.74-10.8-9.74-21.79-19.27-33.13-28.37-4.74-3.8-9.39-7.22-5.72-14.22,.05-.1,.02-.25,.04-.37,1.62-11.61,3.78-23,10.59-32.98,4.26-6.25,7.8-12.97,12.67-18.84,7.68-9.26,15.29-18.57,22.78-27.98,11.35-14.27,22.18-28.97,35.04-41.96,2.18-2.2,1.04-3.2-.54-4.33-5.24-3.75-10.52-7.45-15.85-11.08-16.61-11.29-32.85-23.12-49.74-34.01-11.49-7.41-22.78-15.12-34.28-22.53-11.08-7.13-22.31-14.04-33.47-21.05-11.8-7.41-23.62-14.79-35.77-21.61-.21-1.32,.47-2.4,.96-3.54,2.37-5.47,4.7-10.97,7.09-16.44,5.36-12.27,9.63-25.08,19.36-35.04,5.11-5.23,9.26-11.38,14.05-16.94,1.27-1.48,2.28-4.23,5.28-2.86,4.95,5.02,9.64,10.35,14.94,14.97,3.95,3.44,7.53,8.84,14.29,5.94,1.57,.35,3.85-.43,3.87,2.42-.1,3.6,2.52,5.67,4.4,8.26,5.75,7.92,13.02,7.81,21.72,5.07,2.86-.9,4.85-2.6,6.61-5.38,2.94-4.65,3.86-9.96,6.15-14.77,1.27-4.42,2.45-8.87,3.85-13.25,.9-2.81,.4-4.87-2.34-6.2-5.73-4.77-10.11-11.01-15.69-15.74-12.54-10.62-23.34-22.75-33.64-35.41-2.8-3.44-5.91-5.85-10.13-7.16-9.63-2.97-19.38-5.51-28.91-8.89-9.03-3.2-13.88-9.57-17.05-17.92,.94-9.57,.29-19.17,.57-28.75,.16-5.37-2.17-9.53-5.36-13.46-5.39-6.66-13.13-8.01-20.89-8.95-4.54-.55-8.94,.03-13.37,2.17-5.89,2.85-10.48,6.85-14.26,12.01-3.29,4.99-6.93,9.79-8.34,15.77-.23,2.36-.52,4.73,0,7.09-.04,2.14,.41,4.13,1.33,6.09,2.2,4.69,1.92,9.89,2.75,14.85,.34,2.02-2,4.04-.38,6.26-.07,1.05-.62,2.21,.65,2.97,.58,.71,1.17,1.42,1.75,2.13-.2,3.15-3.62,1.28-4.72,3.03-.78,.15-1.55,.29-2.33,.44-2.82,.57-5.52-.1-8.23-.77-.28-.09-.56-.17-.83-.26-.33-.52-.82-.68-1.41-.65,0,0-.15-.07-.15-.06-1.15-.88-2.55-.94-3.9-1.14-7.24-1.04-13.98,1.69-20.81,3.16-10.34,2.23-20.5,5.32-30.75,8-8.66,2.27-17.71,2.76-26.19,5.83-.46,.06-.92,.13-1.37,.19-.32,.09-.64,.19-.97,.28-6.57,1.85-13.3,3.02-19.78,5.38-13.25,4.83-27.06,7.46-40.99,9.68-8.89,1.41-17.5,2.99-25.97-1.87-2.07-1.19-5.04-1.38-7.61-.23-1.96,.68-3.95,1.19-6.03,1.17-.93,0-1.95-.04-1.77,1.16,.48,3.33-2,4.02-4.19,5.01-.23,.05-.46,.12-.69,.2-2.23,.09-2.16,4.37-5.26,2.88,0,0-.11-.04-.11-.04-.79-.62-1.55-.3-2.3,.1-.5,0-.99,.01-1.49,.02-5.21-1.06-10.42,.32-15.63,.08-1.3-.06-2.68,.38-3.75,1.32,0,0,0,0,0,0-.23,.27-.46,.54-.69,.8-3.01,.45-6.72-.62-7.87,4.12-2.39-3.27-5.66-2.99-8.76-3.21l-.08-.19c-.02-.46-.03-.93-.05-1.39-.15-.91-.29-1.82-1.16-2.38l-.08-.17c-.16-1.14-.71-2.03-1.72-2.62l-.07-.08-.69-.65-.08-.08c-.36-1.46-.88-2.84-2.01-3.9,0,0,0,0,0,0,.03-1.23,.23-2.69-.68-3.53-3.26-3-4.84-7.03-6.95-10.74-.06-3.06-1.07-5.66-3.65-7.5-1.46-2.82-2.88-5.67-4.39-8.46-.51-.93-1.11-2.46-2.25-2.09-2.36,.76-3.29-1.02-4.69-2.04l-.03-.07c1.4-3.11-2.23-2.69-3-4.28l-.12-.17-.56-.73-.05-.09c-.18-.28-.35-.56-.53-.84l-.05-.08c-.13-1.16-.7-2.03-1.74-2.57l-.09-.14c-.02-.72-.28-1.32-.96-1.65l-.15-.28c-.26-1.03-.74-1.9-1.77-2.37l-.16-.2c-.07-.78-.53-1.27-1.2-1.61l-.03-.06c-.5-1.77-1.53-3.18-2.97-4.32l-.12-.15-.65-.68-.07-.09c-.17-.26-.35-.52-.52-.78l-.07-.14c-.66-1.66-1.45-3.22-2.93-4.33l-.1-.1c-.24-.23-.49-.45-.73-.68l-.05-.05-.43-.69-.15-.31c-.09-1.18-.78-1.97-1.72-2.58l-.03-.06c-.18-.28-.36-.55-.54-.83Zm76.49,93.99c-.33,.89-.88,1.98,1.05,1.99,1.52,0,2.26-.77,2.45-2.16,.24-1.75-1.11-2.06-2.3-2.21-2.08-.26-1.11,1.3-1.2,2.38Z"/><path class="l" d="M560.72,389.78c12.16,6.82,23.97,14.2,35.77,21.61,11.16,7.01,22.39,13.91,33.47,21.05,11.5,7.4,22.79,15.11,34.28,22.53,16.89,10.89,33.13,22.72,49.74,34.01,5.33,3.62,10.61,7.32,15.85,11.08,1.58,1.13,2.72,2.14,.54,4.33-12.86,12.99-23.69,27.69-35.04,41.96-7.49,9.41-15.1,18.73-22.78,27.98-4.87,5.87-8.4,12.59-12.67,18.84-6.81,9.99-8.97,21.38-10.59,32.98-.02,.12,.01,.27-.04,.37-3.67,7,.98,10.41,5.72,14.22,11.34,9.1,22.33,18.63,33.13,28.37,8.56,7.72,17.01,15.55,25.12,23.74,.68,.68,1.26,1.46,2.16,2.51-3.14,1.21-5.43-.68-7.62-1.47-11.65-4.21-23.05-9.07-34.56-13.63-11.32-4.49-22.56-9.2-33.98-13.43-10.95-4.05-22.05-7.67-33.08-11.48-3.28-1.13-6.47-2.54-9.91-3.24-1.92-.39-2.66-1.89-2.31-3.69,.92-4.74-1-9.3-.75-13.98,.05-.85-.61-1.25-1.1-1.82-3.35-3.84-3.31-10.79-.1-14.87,2.08-2.64,2.21-6.05,3.19-9.11,5.52-17.27,10.91-34.59,16.26-51.91,1.42-4.61,1.58-9.55,3.55-14.02,.6-1.36,1.26-2.77,2.22-3.88,7.42-8.53,14.91-16.99,22.38-25.48,.74-.84,1.5-1.67,2.14-2.58,1.23-1.78,1.13-2.82-1.23-3.88-21.03-9.49-41.81-19.52-63.05-28.56-12.02-5.11-24.36-9.2-36.68-13.42-9.52-3.26-18.99-6.78-28.9-8.5-11.08-1.92-22.35-2.6-33.46-.12-3.99,.89-7.01,4.17-10.39,6.45-8.13,5.51-16.15,11.21-24.07,17.01-10.12,7.41-20.23,14.83-30.1,22.56-8.61,6.74-16.94,13.84-25.28,20.9-6.68,5.65-11.38,12.49-13.61,21.22-2.91,11.41-6.58,22.63-9.88,33.95-2.7,9.28-5.16,18.64-8.09,27.84-1.3,4.06-1.44,8.3-2.7,12.36-.62,2.02-1.75,3.17-3.46,3.41-9.29,1.34-17.95,4.8-26.76,7.76-.44,.15-.98,0-1.47,0,0-7.3-.01-14.59-.02-21.89,1.91-1.1,1.62-2.95,1.5-4.66-.55-8.3,1.26-16.33,2.56-24.45,1.14-7.12,2.39-14.24,3.25-21.38,1.83-15.27,5.73-29.65,14.53-42.52,3.5-5.11,4.82-11.51,8.63-16.48,7.11-9.27,14.52-18.29,22.25-27.05,12.34-13.99,24.5-28.14,36.9-42.07,11.73-13.18,23.69-26.17,35.52-39.26,2.81-3.11,5.53-6.31,8.3-9.46,4.04,1.24,8.08,2.48,12.12,3.72,3.46,6.44,5.95,13.38,10.28,19.39,2.39,3.32,3.52,3.94,7.04,1.69,4.4-2.81,8.53-6.02,12.85-8.96,2.12-1.44,4.14-3.23,6.96-3.17,1.38,.65,2.82,.87,4.35,.8,14.9-.74,29.8-1.38,44.69-2.27,2.09-.13,4.68,1.17,6.36-1.3,.18-.17,.22-.37,.14-.59l-.07-.03Z"/><path class="k" d="M18.25,294.06c13.86-9.32,27.7-18.68,41.59-27.95,34.34-22.89,68.71-45.74,103.07-68.61,7.99-5.32,16.07-10.51,23.94-16.01,2.47-1.73,3.93-1.34,5.57,.81,2.34,3.06,4.77,6.05,7.15,9.07,.17,.24,.33,.49,.5,.74,0,0,.1,.1,.1,.1,0,.44,.22,.67,.66,.69,0,0,.09,.1,.09,.1,.85,1.53,1.39,3.3,3.17,4.13,0,0,.14,.16,.14,.15,.17,.21,.33,.41,.5,.62,0,0,.1,.17,.1,.17,.16,.27,.32,.55,.49,.82,0,0,.06,.12,.06,.12,.59,1.74,1.37,3.33,3.03,4.31,0,0,.11,.08,.11,.08,.23,.2,.46,.41,.7,.61,0,0,.07,.08,.07,.08,.16,.31,.32,.61,.49,.92,.05,.19,.13,.36,.24,.53,.04,1.07,.79,1.57,1.61,2.02,0,0,.06,.21,.06,.21-.14,.43,.04,.69,.46,.82,0,0,.05,.07,.05,.07-.02,.44,.2,.68,.64,.71,0,0,.11,.13,.11,.13,.04,1.18,.67,1.96,1.69,2.47,.06,.13,.15,.24,.25,.33,.12,.18,.25,.36,.38,.54,0,0,.11,.16,.11,.16,.18,.28,.36,.55,.55,.83,0,0,.03,.06,.03,.06,.05,1.21,.68,2.03,1.72,2.58,0,0,.15,.31,.15,.31,.14,.23,.29,.46,.44,.69,0,0,.05,.05,.05,.05,.24,.23,.49,.45,.73,.68,0,0,.1,.1,.1,.1,.42,1.82,1.3,3.33,2.93,4.33,0,0,.07,.14,.07,.13-.08,.43,.1,.69,.52,.78,0,0,.07,.09,.07,.09,.22,.23,.44,.46,.65,.68,0,0,.12,.15,.12,.15,.48,1.79,1.47,3.23,2.97,4.32,0,0,.03,.06,.03,.06,.06,.78,.47,1.31,1.2,1.61,0,0,.16,.2,.16,.2,.17,1.1,.72,1.92,1.77,2.37,0,0,.15,.28,.14,.28-.02,.75,.26,1.33,.97,1.66,0,0,.09,.14,.09,.14,.18,1.13,.77,1.98,1.74,2.57,0,0,.05,.08,.05,.08,.18,.28,.35,.56,.53,.84,0,0,.05,.09,.05,.09-.06,.43,.12,.68,.56,.73,0,0,.12,.17,.12,.17,.35,1.88,1.52,3.19,3,4.28,0,0,.03,.07,.03,.07,.37,2.48,2.46,3.93,3.61,5.96,2.71,4.8,5.75,9.41,8.65,14.1,.23,.48,.46,.96,.69,1.44,3.42,4.13,5.85,9,9.65,12.85,0,0,0,0,0,0,.06,1.62,.62,2.98,2.01,3.9,0,0,.08,.08,.08,.08,.23,.22,.46,.43,.69,.65,0,0,.07,.08,.07,.08,.06,1.21,.69,2.05,1.72,2.62,0,0,.08,.17,.08,.17,.02,.44,.04,.88,.06,1.31-.12,1.05,.01,1.99,1.14,2.46,0,0,.08,.19,.08,.19,1.42,3.48,5.39,4.59,7.11,7.98,3.31,6.54,6.61,13.17,10.8,19.14,4.28,6.1,8.35,12.31,12.45,18.52,1.69,2.55,2.01,6.41,5.85,7.29,0,0-.02-.04-.02-.04,0,2.64,1.48,4.66,2.69,6.83,3.3,5.96,8.19,10.89,11,17.21,1.46,3.27,1.3,5.71-1.69,7.77-2.07,1.42-3.85,3.12-5.24,5.22,0,0,0,0,.01,0-4.77,1.24-8.81,3.71-12.12,7.36,0,0,0,0,0,0-2.93,.8-5.62,1.99-7.46,4.56,0,0,.01,0,.01,0-7.34,2.63-13.54,7.12-19.53,11.95,0,0,0,0,0,0-2.6,.9-5.36,1.52-6.82,4.25-.09,.23-.26,.34-.5,.33-2.64,.88-5.89,.74-6.99,4.2-.11,.2-.29,.3-.52,.3-3.06,.62-5.8,1.79-7.55,4.56-3.69,.95-6.79,2.81-9.11,5.89h.03c-1.17-.2-1.95,.27-2.33,1.4-22.98,13.94-46.01,27.8-68.92,41.86-11.45,7.02-22.68,14.4-34.02,21.6-1.78,1.13-3.58,2.26-5.43,3.27-7.29,3.95-7.25,3.9-11.49-3.1-34.31-56.58-68.65-113.14-102.97-169.71-2.77-4.57-5.42-9.21-8.13-13.82,3.65,.55,4.14,4.14,6.01,6.36,2.53,3,5.31,2.91,6.56-.82,.94-2.8,2.36-4.32,5.28-4.97,2.79-.63,2.75-3.77,4.05-5.73-3.26-.96-3.93-5.91-8.2-5.32Zm121.42,29.95v-55.78c-5.8,2.74-10.78,5.29-15.93,7.44-2.36,.98-3.04,2.24-3.03,4.72,.11,18.86,.06,37.71,.06,56.57,0,25.85,0,51.7,.02,77.55,0,1.54-.84,3.58,2.44,3,23.21-4.08,44.69-12.29,63.6-26.53,22.99-17.31,32.89-40.36,28.26-68.83-4.16-25.56-23.12-45.83-51.24-53.16-1.06-.28-1.94-.21-2.87,.23-6.6,3.13-13.21,6.26-20.55,9.73,6.72,2.02,13,3.13,18.64,6.05-1.66,.02-3.16,.47-2.96,2.47,.41,4.03-1.53,7.16-3.44,10.4-1.31,2.23-2.1,4.68-2.81,7.23-2.06,7.39,1.93,14.81-.59,22.21-.85,2.51-.15,6.96-2.46,7.33-3.83,.61-4.01-3.87-4.93-6.65-.51-1.52-.36-3.25-2.22-3.97Zm-57.4,85.52c-.04,1.91-.52,3.37,.42,5.01,3.09,5.4,7.52,8.46,13.73,9.08,4.21,.42,8.4,1.09,12.61,1.54,4.6,.49,8.96-.36,12.94-2.8,.78-.48,2.2-1.55,.55-2.06-3.23-1-2.44-3.39-2.45-5.48-.04-29.34-.03-58.68-.03-88.02,0-1.12-.01-2.25-.05-3.37-.05-1.49-.83-2.25-2.33-2.37-5.82-.45-10.71,1.15-14.59,5.81-3.13,3.76-4.37,8.11-4.69,12.75-.34,4.99-2.55,8.07-7.52,9.38-2.62,.69-5.12,1.98-7.53,3.27-2.59,1.39-3.62,.79-3.8-2.1-.19-3.03,.63-5.95,.73-8.93,.05-1.39,.04-2.9-2.17-2.52-5.18,.88-9.85,2.46-13.94,6.22-6.45,5.93-10.22,18.68-6.52,26.49,2.19,4.62,2.4,10.07,6.07,14.04,.53,.57,.64,1.62,.76,2.47,.84,5.87,1.1,11.97,6.89,15.67,.27,.17,.38,.63,.54,.96,1.49,2.96,6.66,5.53,10.36,4.96Zm-43.64-69.06c-1.16,.03-2.41-.77-3.36,.72-1.8,2.83-.45,5.78,2.73,6.91,3.02,1.07,6.71,.24,9.07,3.49,.9,1.25,1.73-.22,1.59-1.24-.42-2.96-.97-5.91-1.57-8.83-.23-1.11-1.2-1.9-2.23-1.34-2.1,1.14-4.16,.21-6.23,.29Zm-2.19-8.97c.13-2.2,1.27-4.86-2.38-5.12-3.7-.26-6.75,1.79-6.73,4.36,.03,3.76,2.01,5.67,6.17,5.7,3.74,.03,3.2-2.62,2.94-4.94Z"/><path class="p" d="M560.66,390.4c-1.68,2.46-4.27,1.17-6.36,1.3-14.89,.89-29.79,1.53-44.69,2.27-1.53,.08-2.97-.15-4.34-.8,3.61-4.84,7.18-9.69,8.2-15.89,.44-2.69,1.04-5.37,1.73-8.02,4.71-18.18,9.47-36.36,12.98-54.82,1.37-7.21,1.82-14.81,4.79-21.43,3.67-8.2,7.83-16.37,14.27-22.98,5.8,.87,11.59,1.81,17.4,2.57,3.29,.43,5.88,1.93,8.03,4.35,8.2,9.24,16.88,18.03,25.39,26.98,3.32,3.49,6.93,6.79,9.4,11.03-2.99-1.38-4,1.38-5.28,2.86-4.79,5.56-8.95,11.71-14.05,16.94-9.73,9.97-13.99,22.77-19.36,35.04-2.39,5.47-4.72,10.96-7.09,16.44-.49,1.14-1.17,2.21-.96,3.54,0,0,.07,.03,.07,.03-.08,.05-.22,.09-.22,.13,0,.15,.05,.31,.08,.46Z"/><path class="c" d="M607.46,314.95c-2.47-4.24-6.09-7.54-9.4-11.03-8.51-8.95-17.19-17.74-25.39-26.98-2.15-2.42-4.74-3.92-8.03-4.35-5.81-.75-11.6-1.7-17.4-2.57-2.24-1.87-4.44-3.81-6.75-5.59-1.37-1.06-2.46-1.02-3.47,.87-.96,1.79-1.97,3.71-3.73,4.97-.77-1.93-2.87-3.57-2.27-5.75,1.35-4.9-1.49-7.42-4.93-9.71-2.38-1.58-3.66-3.65-3.33-6.57,0,0-.04,.04-.04,.04,4.44-.02,8.74-.7,12.16-3.8,2.44-2.21,5.23-3.76,8.13-5.18,4.58-.03,9.16-.05,13.74-.1,2.08-.02,3.95,.38,5.16,2.29-2.88-.29-5.3,.93-7.67,2.31-1.23,.72-2.16,1.67-2.15,3.22,0,1.8,1.45,2.12,2.72,2.56,4.32,1.48,8.72,2.71,12.86,4.7,1.27,.49,2.54,.98,3.81,1.48,3.4,1.82,7.05,3.04,10.39,5.04,6.63,3.97,13.45,7.66,20.63,10.54,17.1,6.86,34.69,12.48,51.53,20.02,5.14,2.3,4.96,2.61,2.72,8.02-4.13,9.97-9.33,19.47-12.81,29.71-1.22,3.59-3.1,6.36-7.24,6.77-6.76,2.9-10.34-2.5-14.29-5.94-5.3-4.62-9.99-9.95-14.94-14.97Z"/><path class="j" d="M636.7,335.87c4.14-.41,6.02-3.17,7.24-6.77,3.48-10.24,8.68-19.74,12.81-29.71,2.24-5.41,2.42-5.72-2.72-8.02-16.84-7.54-34.43-13.16-51.53-20.02-7.18-2.88-14-6.57-20.63-10.54-3.34-2-7-3.23-10.39-5.04,.81-.74,1.74-1.39,2.42-2.24,3.33-4.18,2.59-8.83-1.61-10.53-2.65,3.18-5.2,2.78-7.83-.1-.62-.68-1.68-.95-2.54-1.41-1.21-1.91-3.08-2.31-5.16-2.29-4.58,.04-9.16,.07-13.74,.1-4.56-4.33-9.73-6.46-16.05-4.45,.91-8.27,1.82-16.54,2.73-24.82,6.61,.01,12.74-1.85,18.59-4.77,2.31,4.25,6.53-1.39,9.06,1.75,1.16-.97,.2-2.68,1.29-3.67,2.27,2.84,1.49,5.29-1.02,7.46-.75,.65-1.59,1.19-2.37,1.81-5.45,4.41-5.61,6.79-2.29,13.05,3.62,6.83,9.94,10.21,15.98,14.11,.92-2.99-3.87-5.46-.55-8.17,2.18-1.78,3.75-4.73,7.16-4.7,3.17,8.36,8.03,14.72,17.06,17.92,9.53,3.38,19.28,5.91,28.91,8.89,4.22,1.3,7.34,3.72,10.13,7.16,10.3,12.65,21.1,24.79,33.64,35.41,5.58,4.73,9.96,10.97,15.69,15.74-.17,1.48-.31,2.97-.53,4.44-.65,4.42-2.72,8.58-2.49,13.18l.03,.04c-.27,.37-.55,.73-.82,1.1-2.44,3.36-3.97,7.11-4.39,11.24-.17,1.69-.68,2.88-2.05,4.09-5.69,5.01-12.13,3.98-18.39,2.16-5.19-1.51-7.55-6.95-11.75-9.96-.01-2.85-2.29-2.06-3.87-2.42Z"/><path class="m" d="M522.74,248.25c-.33,2.92,.95,4.98,3.33,6.57,3.44,2.29,6.28,4.81,4.93,9.71-.6,2.18,1.5,3.82,2.27,5.75-1.97,4.92-5.42,8.87-8.82,12.76-4.55,5.21-9.17,10.43-13.44,15.81-7.11,8.96-12.13,19.4-17.43,29.53-7.79,14.88-14.97,30.07-22.69,44.99-1.44,2.78-2.23,5.32-1.81,8.35,.13,.95,.36,2.06-.95,2.51-4.04-1.24-8.08-2.48-12.12-3.72-.6-3.28,1.35-5.92,2.47-8.66,4.25-10.37,9.35-20.4,12.3-31.27,2.95-10.83,5.88-21.66,5.2-33.09-.23-3.88,1.32-7.94-1.38-11.53-2.18-.79-4.44-.35-6.66-.38l-.26,.08s-.27-.05-.27-.05c-.86-.07-1.68,.02-2.36,.62-.8,.26-1.59,.51-2.39,.77-1.15,.15-2.3,.29-3.45,.44-1.03,.21-2.05,.42-3.08,.63-1.17-1.11-2.26-1.38-3.15,.31-1.43,.07-2.86,.14-4.29,.21-1.12,.26-2.49-.77-3.39,.65-1.18,.19-2.37,.38-3.55,.57,1.16-2.04,1.76-5.07,4.81-4.64,2.84,.39,5.37-.1,8.06-.72,4.84-1.11,9.85-.54,14.77-.92,4.85-.38,8.26-1.2,10.63-5.46,.74-1.32,1.22-2.77,2.98-3.03-1.11,2.6-.4,4.17,2.42,5.05,4.99,1.56,9.9,3.4,14.87,5.05,1.48,.49,3.04,.68,4.63-1.12-3.01-1.08-5.59-1.95-8.12-2.94-4.49-1.75-9.48-2.47-13.07-6.13,.33-1.3,.62-2.61,1.51-3.67,.32,.37,.57,.92,.98,1.1,7.38,3.28,15.18,5.28,22.88,7.61,.75,.23,1.65-.02,1.72-.92,.08-.95-.9-1.02-1.59-1.21-6.32-1.78-12.62-3.66-18.68-6.22-1.79-.76-3.46-1.39-5.31-.35-1.22-2.1,.8-3.12,1.54-4.56,3.03,1.13,6.26,1.47,9.33,2.57,4.55,1.63,9.24,2.93,13.94,4.06,1.48,.36,4.06,1.15,4.54-.95,.41-1.77-2.09-2.24-3.55-2.56-5.2-1.16-10.45-2.08-15.69-3.09-1.44-.28-2.97-.27-3.75-1.95-.69-1.48-2.15-.86-3.33-.94,.17-2.01-.8-4.5,2.22-5.33,.63,1.97,2.45,2.36,4.05,2.97,7.84,2.98,16.02,4.73,24.18,6.52,1,.22,2.12,.61,3.45-.77-7.87-1.86-14.82-5.25-22.24-7.27-3.1-.85-6.02-2.58-9.41-2.15-1.81-3.87,1.92-3.9,3.67-5.31,7.61,3.73,15.56,5.32,24.01,3.94,.08-.95-.59-1.2-1.14-1.36-3.94-1.17-7.95-2.14-11.84-3.46-2.67-.91-5.74-.68-8-2.75,.25-1.28,.51-2.55,.76-3.83,4.63,.94,8.94,4,14.15,2.1-3.53-2.17-7.61-2.57-11.15-4.35,2.93-1.02,2.68-2.7,.7-4.35-1.92-1.6-1.01-1.68,.66-1.63,0,0,.15,.07,.15,.06,.47,.22,.94,.43,1.41,.65,.28,.09,.56,.17,.83,.26,.82,.88,1.6,1.79,2.46,2.63,2.65,2.62,4.71,1.95,5.77-1.86,.78-.15,1.55-.29,2.33-.44,1.45,.56,2.91,1.08,4.34,1.68,1.54,.65,2.28,.14,2.35-1.49,.26-.02,.52-.05,.77-.07Zm-23.26,49.3c-6.26-1.91-12.47-4.12-19.18-3.76,6.15,2.48,12.49,3.99,19.18,3.76Zm-8.13,4.79c-3.61-1.1-7.21-2.23-10.83-3.27-1.1-.32-2.71-1.11-3.11,.64-.33,1.47,1.25,2.04,2.44,2.28,3.73,.75,7.49,1.31,11.5,.35Z"/><path class="n" d="M312.95,295.43c-.29-.04-.58-.08-.87-.13-.32-.33-.62-.27-.88,.08,0,0-.1,.02-.1,.02-.85-.01-1.69-.02-2.54-.03,0,0-.16-.1-.16-.1,.28-2.15-1.63-2.91-2.69-4.19-1.37-1.64-2.09-3.16,.24-4.57,0,0,.11,.04,.11,.04,3.95,3.04,4.18-.68,5.26-2.88,.22-.09,.45-.15,.69-.2,1.96,.4,3.84-.26,4.27-2.06,.74-3.12,2.92-3.56,5.4-3.84,1.03-.12,1.99-.26,2.33-1.44,2.58-1.15,5.54-.96,7.61,.23,8.47,4.86,17.08,3.28,25.97,1.87,13.92-2.21,27.73-4.85,40.99-9.68,6.48-2.36,13.2-3.53,19.78-5.38,.32-.09,.64-.19,.97-.28,.46-.06,.92-.13,1.37-.19,.45,3.83,1.64,7.47,2.59,11.19,2.47,9.68,5.97,19.19,5.54,29.42-2.43,1.42-4.94,2.13-7.83,1.56-15.23-3-30.68-4.55-46.03-6.73-8.84-1.26-17.56-3.37-26.33-5.15-5.89-1.2-10.83-.65-14.45,5.2-2.46,3.99-6.61,4.33-12.44,1.72-1.86-.83-3.49-1.65-5.59-1.46-1.57,.14-1.8-1.49-2.57-2.39-.21-.2-.42-.4-.64-.6Z"/><path class="j" d="M428.81,303.29c.43-10.23-3.07-19.74-5.54-29.42-.95-3.71-2.14-7.36-2.59-11.19,8.48-3.07,17.53-3.56,26.19-5.83,10.25-2.68,20.4-5.78,30.75-8,6.83-1.47,13.57-4.2,20.81-3.16,1.35,.19,2.75,.26,3.9,1.14-1.68-.05-2.59,.03-.66,1.63,1.98,1.65,2.23,3.33-.7,4.35-1.35,.28-3.69-.74-3.01,2.25-.25,1.28-.51,2.55-.76,3.83-2.62-.13-3.03,1.58-3.03,3.63-1.75,1.41-5.48,1.44-3.67,5.31,0,.23-.02,.46-.03,.69-3.02,.83-2.04,3.32-2.22,5.33-.5,.95-1,1.91-1.49,2.86-.74,1.44-2.76,2.46-1.54,4.56h0c-.88,1.07-1.18,2.38-1.51,3.68-.24,.03-.48,.06-.72,.08-1.76,.26-2.25,1.71-2.98,3.03-2.37,4.26-5.78,5.08-10.63,5.46-4.93,.38-9.94-.19-14.77,.92-2.69,.62-5.22,1.11-8.06,.72-3.05-.42-3.65,2.6-4.81,4.64-3.61,3.78-8.74,1.92-12.94,3.49Z"/><path class="o" d="M548.27,205.27c-5.86,2.92-11.98,4.79-18.6,4.77-.09-.54-.18-1.08-.27-1.62,1.13-1.04,.3-2.48,.73-3.66,1.65-.85,3.27-1.75,4.95-2.53,3.91-1.79,5.54-5.07,6.12-9.09,.2-1.4-.11-2.53-1.57-2.92-4.03-1.07-8-2.64-12.32-1.21-1.62,.54-3.39,.62-5.09,.91,3.78-5.16,8.36-9.15,14.26-12.01,4.42-2.14,8.83-2.72,13.37-2.17,7.76,.93,15.5,2.29,20.89,8.95,3.19,3.94,5.51,8.1,5.36,13.46-.28,9.58,.37,19.18-.57,28.75-3.41-.02-4.98,2.92-7.16,4.7-3.31,2.71,1.48,5.18,.55,8.17-6.04-3.9-12.36-7.27-15.98-14.11-3.32-6.26-3.16-8.64,2.29-13.05,.77-.62,1.62-1.16,2.37-1.81,2.51-2.18,3.29-4.62,1.02-7.46-1.69-4.02-1.65-3.96-5.06-1.43-1.67,1.24-3.52,2.24-5.29,3.35Z"/><path class="l" d="M319.65,631.2c-9.21,3.27-18.42,6.53-27.63,9.8-.47,.17-.89,.49-1.37,.58-.83,.16-1.89,.55-2.45-.25-.62-.89,.28-1.53,.85-2.19,5.89-6.89,12.45-13.13,19.01-19.36,4.02-3.81,7.73-8,12.67-10.72,1.02,5.63,.17,11.32,.48,16.97,.11,1.96-.39,3.64-1.58,5.15Z"/><path class="n" d="M529.4,208.41c.09,.54,.18,1.08,.27,1.62-.91,8.27-1.82,16.55-2.73,24.82-2.48,4.14-1.94,9.24-4.25,13.44,0,0,.04-.04,.04-.04-.26,.02-.52,.05-.77,.07,0,0-.05-.09-.05-.09-.05-.73-.11-1.46-.16-2.19-.31-.83-.82-1.28-1.75-.94-.58-.71-1.17-1.42-1.75-2.13,.13-1.07,.14-2.11-.65-2.97-1.63-2.22,.71-4.24,.38-6.26-.83-4.97-.55-10.17-2.75-14.85-.92-1.97-1.37-3.96-1.33-6.09,.79-1.97,2.41-1.21,3.84-1.21,4.17,.01,8.38,.1,11.67-3.16Z"/><path class="b" d="M522.22,189.92c1.7-.29,3.47-.38,5.09-.91,4.32-1.43,8.29,.14,12.32,1.21,1.46,.39,1.78,1.52,1.57,2.92-.58,4.02-2.21,7.3-6.12,9.09-1.68,.77-3.3,1.68-4.95,2.53-5.39,.81-10.82,.86-16.24,.94,1.41-5.98,5.05-10.78,8.34-15.77Z"/><path class="f" d="M301.66,342.67c-3.84-.88-4.16-4.73-5.85-7.29-4.1-6.21-8.17-12.42-12.45-18.52-4.19-5.97-7.49-12.61-10.8-19.14-1.72-3.39-5.69-4.5-7.11-7.98,3.11,.23,6.38-.06,8.76,3.22,1.15-4.74,4.86-3.67,7.87-4.12,.23-.27,.46-.54,.69-.8,0,0,0,0,0,0,1.43,.38,2.69-.38,4.03-.6,3.91-.65,7.43,1.15,9.01,4.69,.4,.91,.81,2.34-.59,2.4-3.36,.14-2.27,2.58-2.58,4.34-1.99-.2-3.95-.93-6-.22-.69,.24-1.15-.24-1.48-.82-.75-1.31-1.62-3.1-3.27-2.45-2.38,.95-4.7,2.4-6.18,4.62-.72,1.07,.44,2.07,1.02,2.96,6.92,10.76,13.86,21.5,20.82,32.23,1.56,2.4,3.11,4.8,4.09,7.51Z"/><path class="h" d="M18.25,294.06c4.27-.59,4.94,4.36,8.2,5.32-1.3,1.96-1.26,5.1-4.05,5.73-2.92,.65-4.34,2.17-5.28,4.97-1.25,3.72-4.03,3.82-6.56,.82-1.87-2.22-2.36-5.82-6.01-6.36-1.02-.82-.69-1.3,.4-1.59,.37-.24,.74-.47,1.1-.71,0,0,0,0,0,0,.27-.2,.54-.41,.82-.61,0,0,.12-.05,.12-.05,.97-.08,1.78-.39,2.09-1.43,.1-.21,.26-.28,.49-.23,2.07,.15,4.12,.26,4.01-2.76,.08-.21,.23-.29,.45-.25,2.2,.31,3.64-.51,4.09-2.78l.14-.07Z"/><path class="p" d="M640.56,338.28c4.2,3.01,6.56,8.45,11.75,9.96,6.26,1.82,12.7,2.86,18.39-2.16,1.37-1.21,1.88-2.39,2.05-4.09,.42-4.13,1.95-7.87,4.39-11.24,.27-.37,.55-.73,.82-1.1,0,0-.03-.04-.03-.04,2.38-.93,.9,1.31,1.5,1.83-2.28,4.81-3.2,10.12-6.15,14.77-1.76,2.78-3.75,4.48-6.61,5.38-8.7,2.74-15.97,2.85-21.72-5.07-1.88-2.59-4.51-4.66-4.4-8.26Z"/><path class="i" d="M249.16,263.99c-2.91-4.69-5.94-9.3-8.65-14.1-1.15-2.03-3.24-3.48-3.61-5.96,1.4,1.02,2.33,2.8,4.69,2.04,1.15-.37,1.75,1.15,2.25,2.09,1.51,2.79,2.93,5.64,4.39,8.46-.01,3.1,1.18,5.61,3.65,7.5,2.11,3.71,3.69,7.73,6.95,10.74,.91,.84,.71,2.29,.68,3.53-3.8-3.85-6.23-8.72-9.65-12.85-.23-.48-.46-.96-.69-1.44Z"/><path class="i" d="M513.89,205.69c5.43-.08,10.86-.12,16.24-.94-.43,1.18,.4,2.62-.73,3.66-3.29,3.26-7.5,3.17-11.67,3.16-1.43,0-3.05-.76-3.84,1.21-.52-2.36-.23-4.73,0-7.09Z"/><path class="i" d="M292.65,298.85c.31-1.76-.78-4.19,2.58-4.34,1.4-.06,.99-1.49,.59-2.4-1.57-3.54-5.09-5.35-9.01-4.69-1.34,.22-2.6,.99-4.03,.6,1.07-.94,2.45-1.38,3.75-1.32,5.22,.24,10.42-1.14,15.63-.08-.1,.09-.2,.18-.29,.27-.41-.11-1-.41-.97,.34,.02,.53,.62,.58,1.1,.54,.16,.16,.32,.32,.47,.48,.61,1.32,1.74,2.78-1.09,2.85-.96,.02-1.91,.43-2.87,.66-.18-.09-.36-.18-.54-.27l.54,.27c.24,2.38,3.09,3.82,2.35,6.55-1.7-.04-2.92,0-4.47-1.77-2.78-3.18-2.39,1.55-3.75,2.31Z"/><path class="f" d="M308.39,379.66c1.39-2.1,3.17-3.8,5.24-5.22,2.99-2.06,3.15-4.5,1.69-7.77-2.81-6.32-7.7-11.24-11-17.21-1.2-2.17-2.7-4.2-2.69-6.83,6.07,8.02,11.11,16.7,15.98,25.47,1.12,2.02,.78,3.69-1.05,5.25-2.62,2.24-4.87,4.95-8.18,6.31Z"/><path class="p" d="M298.51,291.77c.96-.23,1.91-.63,2.87-.66,2.83-.07,1.7-1.53,1.09-2.85,.94-.16,1.27-.76,1.18-1.66,.75-.4,1.5-.72,2.3-.1-2.33,1.4-1.61,2.93-.24,4.57,1.07,1.28,2.97,2.04,2.69,4.19-2.61,.08-5.4-.22-6.38,3.14-.34,.02-.69,.04-1.03,.05,0,0-.12-.14-.12-.14,.74-2.73-2.11-4.17-2.35-6.55h0Z"/><path class="i" d="M679.44,331.47c-.6-.53,.88-2.76-1.5-1.83-.22-4.59,1.84-8.75,2.49-13.17,.22-1.47,.35-2.96,.53-4.44,2.74,1.33,3.24,3.39,2.34,6.2-1.4,4.38-2.58,8.83-3.85,13.25Z"/><path class="o" d="M319.65,631.2c1.19-1.52,1.68-3.2,1.58-5.15-.31-5.65,.54-11.34-.48-16.97,.24-.95,.96-1.18,1.81-1.23,0,7.3,0,14.59,.01,21.89-1.09,.26-1.6,1.66-2.92,1.46Z"/><path class="f" d="M269.3,403.53c5.99-4.84,12.19-9.32,19.53-11.95-6.52,3.97-12.7,8.49-19.53,11.95Z"/><path class="j" d="M512.95,248.57c-1.06,3.81-3.12,4.48-5.77,1.86-.85-.84-1.64-1.75-2.46-2.63,2.7,.67,5.41,1.34,8.23,.77Z"/><path class="i" d="M291.86,307.02c.09-1.08-.89-2.64,1.2-2.38,1.2,.15,2.54,.46,2.3,2.21-.19,1.39-.94,2.17-2.45,2.16-1.93,0-1.38-1.1-1.05-1.99Z"/><path class="p" d="M324,276.12c-.34,1.19-1.3,1.33-2.33,1.44-2.48,.29-4.66,.72-5.4,3.84-.43,1.8-2.31,2.46-4.27,2.06,2.2-1,4.68-1.69,4.19-5.01-.17-1.2,.84-1.17,1.77-1.16,2.08,.02,4.08-.49,6.03-1.17Z"/><path class="f" d="M296.28,387.02c3.31-3.65,7.35-6.12,12.12-7.36-3.96,2.59-7.81,5.34-12.12,7.36Z"/><path class="i" d="M520,245.1c.93-.34,1.45,.11,1.75,.94-.33,.76-.55,1.51,.16,2.19,0,0,.05,.09,.05,.09-.07,1.63-.8,2.14-2.35,1.49-1.43-.6-2.89-1.12-4.34-1.68,1.1-1.74,4.52,.13,4.72-3.03Z"/><path class="p" d="M251.88,264.02c-2.47-1.89-3.66-4.4-3.65-7.5,2.58,1.84,3.6,4.43,3.65,7.5Z"/><path class="f" d="M237.81,423.06c2.31-3.08,5.42-4.94,9.11-5.89-2.89,2.19-5.81,4.34-9.11,5.89Z"/><path class="f" d="M246.92,417.17c1.76-2.78,4.49-3.94,7.55-4.57-2.34,1.81-4.83,3.39-7.55,4.57Z"/><path class="f" d="M254.99,412.3c1.1-3.45,4.35-3.32,6.99-4.2-2.22,1.59-4.36,3.29-6.99,4.2Z"/><path class="f" d="M262.48,407.77c1.46-2.72,4.22-3.35,6.82-4.25-1.71,2.31-4.4,3.06-6.82,4.25Z"/><path class="f" d="M288.82,391.58c1.84-2.58,4.54-3.76,7.46-4.56-2.18,2.02-4.74,3.43-7.46,4.56Z"/><path class="p" d="M311.32,283.66c-1.07,2.2-1.31,5.92-5.26,2.88,3.1,1.49,3.03-2.79,5.26-2.88Z"/><path class="i" d="M236.87,243.86c-1.48-1.09-2.65-2.4-3-4.28,.77,1.59,4.4,1.17,3,4.28Z"/><path class="j" d="M467.94,295.57c2.23,.03,4.48-.41,6.66,.38-2.28,.85-4.52,1.19-6.66-.38Z"/><path class="k" d="M13.57,297.16c.11,3.02-1.94,2.91-4.01,2.76,1.11-1.25,2.5-2.09,4.01-2.76Z"/><path class="i" d="M208.4,203.33c-1.66-.98-2.44-2.58-3.03-4.31,1.51,1.09,2.46,2.57,3.03,4.31Z"/><path class="i" d="M222.06,222.65c-1.63-1-2.51-2.51-2.93-4.33,1.48,1.11,2.27,2.67,2.93,4.33Z"/><path class="i" d="M226.46,228.8c-1.5-1.09-2.49-2.53-2.97-4.32,1.44,1.13,2.47,2.54,2.97,4.32Z"/><path class="k" d="M18.11,294.13c-.45,2.27-1.89,3.08-4.09,2.78,1.18-1.2,2.55-2.11,4.09-2.78Z"/><path class="i" d="M204.09,197.13c-1.78-.82-2.32-2.59-3.17-4.13,1.72,.87,2.38,2.54,3.17,4.13Z"/><path class="i" d="M261.52,282.19c-1.4-.93-1.95-2.29-2.01-3.9,1.13,1.06,1.65,2.44,2.01,3.9Z"/><path class="j" d="M452.98,298.37c.89-1.7,1.98-1.43,3.15-.31-.97,.95-2.08,.41-3.15,.31Z"/><path class="i" d="M229.62,233.03c-1.05-.45-1.59-1.27-1.77-2.37,1.02,.47,1.5,1.34,1.77,2.37Z"/><path class="i" d="M214.63,211.99c-1.01-.52-1.65-1.29-1.69-2.47,.93,.57,1.58,1.34,1.69,2.47Z"/><path class="j" d="M445.3,299.23c.9-1.42,2.27-.39,3.39-.65-1.13,.22-2.26,.43-3.39,.65Z"/><path class="i" d="M232.56,237.68c-.97-.59-1.56-1.44-1.74-2.57,1.05,.54,1.61,1.4,1.74,2.57Z"/><path class="i" d="M264.08,285.61c-1.03-.58-1.66-1.41-1.72-2.62,1,.59,1.55,1.48,1.72,2.62Z"/><path class="f" d="M235.51,424.46c.37-1.13,1.15-1.6,2.33-1.41-.6,.76-1.27,1.4-2.33,1.41Z"/><path class="i" d="M217.66,216.49c-1.04-.55-1.67-1.37-1.72-2.58,.94,.61,1.63,1.4,1.72,2.58Z"/><path class="i" d="M211.61,207.58c-.82-.45-1.57-.96-1.61-2.02,.86,.41,1.48,1.03,1.61,2.02Z"/><path class="j" d="M459.21,297.43c1.15-.15,2.3-.29,3.45-.44-1.15,.15-2.3,.29-3.45,.44Z"/><path class="f" d="M265.37,289.55c-1.13-.47-1.26-1.41-1.15-2.46,.36,.36,.73,.71,1.09,1.07,.02,.46,.03,.93,.05,1.39Z"/><path class="m" d="M517.6,239.99c.79,.87,.78,1.91,.65,2.97-1.27-.76-.72-1.92-.65-2.97Z"/><path class="p" d="M308.56,295.36c.85,.01,1.69,.02,2.54,.03-.85,.51-1.7,.7-2.54-.03Z"/><path class="i" d="M303.65,286.6c.09,.9-.24,1.49-1.18,1.66-.15-.16-.31-.32-.47-.48-.04-.29-.09-.59-.13-.89,.1-.09,.19-.18,.29-.27,.5,0,.99-.01,1.49-.02Z"/><path class="i" d="M265.32,288.16c-.37-.36-.73-.71-1.09-1.07-.02-.44-.04-.88-.06-1.31,.86,.56,1,1.48,1.16,2.38Z"/><path class="k" d="M9.07,300.15c-.32,1.03-1.12,1.35-2.09,1.43,.7-.48,1.4-.95,2.09-1.43Z"/><path class="i" d="M227.69,230.47c-.72-.3-1.13-.82-1.2-1.61,.66,.34,1.13,.82,1.2,1.61Z"/><path class="i" d="M230.72,234.97c-.71-.33-.98-.91-.97-1.66,.69,.34,.94,.93,.97,1.66Z"/><path class="j" d="M465.05,296.22c.68-.6,1.5-.69,2.36-.62-.67,.65-1.49,.71-2.36,.62Z"/><path class="i" d="M300.99,298.46c.34-.02,.69-.04,1.03-.05-.32,.47-.65,.72-1.03,.05Z"/><path class="j" d="M503.89,247.54c-.47-.22-.94-.43-1.41-.65,.58-.03,1.08,.13,1.41,.65Z"/><path class="k" d="M6.05,302.23c-.37,.24-.74,.47-1.1,.71,.37-.24,.74-.47,1.1-.71Z"/><path class="i" d="M282.77,288.03c-.23,.27-.46,.54-.69,.8,.23-.27,.46-.54,.69-.8Z"/><path class="i" d="M233.75,239.41c-.44-.05-.62-.3-.56-.73,.19,.24,.37,.49,.56,.73Z"/><path class="p" d="M311.2,295.38c.27-.35,.56-.4,.88-.08-.29,.03-.59,.05-.88,.08Z"/><path class="i" d="M233.14,238.59c-.18-.28-.35-.56-.53-.84,.18,.28,.35,.56,.53,.84Z"/><path class="i" d="M212.83,209.38c-.44-.04-.66-.27-.64-.71,.21,.24,.43,.48,.64,.71Z"/><path class="p" d="M312.95,295.43c.21,.2,.42,.4,.64,.6-.21-.2-.42-.4-.64-.6Z"/><path class="i" d="M200.08,192.11c-.17-.25-.33-.49-.5-.74,.17,.25,.33,.49,.5,.74Z"/><path class="i" d="M200.83,192.9c-.44-.03-.66-.25-.66-.69,.22,.23,.44,.46,.66,.69Z"/><path class="i" d="M204.73,197.9c-.17-.21-.33-.41-.5-.62,.17,.21,.33,.41,.5,.62Z"/><path class="i" d="M223.38,224.34c-.22-.23-.44-.46-.65-.68,.22,.23,.44,.46,.65,.68Z"/><path class="i" d="M205.32,198.9c-.16-.27-.33-.55-.49-.82,.16,.27,.33,.55,.49,.82Z"/><path class="i" d="M222.65,223.57c-.42-.09-.6-.35-.52-.78,.18,.26,.35,.52,.52,.78Z"/><path class="j" d="M419.32,262.87c-.32,.09-.64,.19-.97,.28,.32-.09,.64-.19,.97-.28Z"/><path class="i" d="M209.21,204.02c-.23-.2-.47-.41-.7-.61,.23,.2,.47,.41,.7,.61Z"/><path class="i" d="M209.77,205.02c-.16-.31-.33-.62-.49-.92,.43,.17,.59,.48,.49,.92Z"/><path class="i" d="M219.03,218.22c-.24-.23-.49-.45-.73-.68,.24,.23,.49,.45,.73,.68Z"/><path class="i" d="M215.26,212.86c-.13-.18-.25-.36-.38-.54,.13,.18,.25,.36,.38,.54Z"/><path class="i" d="M215.91,213.85c-.18-.28-.36-.55-.55-.83,.18,.28,.36,.55,.55,.83Z"/><path class="i" d="M262.3,282.91c-.23-.22-.46-.43-.69-.65,.23,.22,.46,.43,.69,.65Z"/><path class="i" d="M218.24,217.49c-.15-.23-.29-.46-.44-.69,.15,.23,.29,.46,.44,.69Z"/><path class="k" d="M6.85,301.63c-.27,.2-.54,.41-.82,.61,.27-.2,.54-.41,.82-.61Z"/><path class="i" d="M212.13,208.6c-.42-.12-.6-.38-.46-.82,.15,.27,.3,.55,.46,.82Z"/><path class="e" d="M468.12,384.22c1.31-.46,1.09-1.57,.95-2.51-.42-3.02,.37-5.56,1.81-8.35,7.72-14.91,14.91-30.11,22.69-44.99,5.3-10.13,10.32-20.57,17.43-29.53,4.27-5.38,8.89-10.6,13.44-15.81,3.4-3.89,6.85-7.84,8.82-12.76,1.76-1.26,2.77-3.17,3.73-4.97,1.01-1.88,2.1-1.93,3.47-.87,2.31,1.78,4.51,3.72,6.75,5.59-6.45,6.6-10.6,14.78-14.27,22.98-2.97,6.62-3.42,14.22-4.79,21.43-3.51,18.46-8.27,36.64-12.98,54.82-.69,2.64-1.29,5.32-1.73,8.02-1.02,6.2-4.58,11.05-8.2,15.89-2.83-.06-4.85,1.72-6.97,3.17-4.32,2.94-8.45,6.16-12.85,8.96-3.52,2.25-4.65,1.62-7.04-1.69-4.33-6-6.82-12.95-10.28-19.39Z"/><path class="g" d="M560.66,390.4c-.03-.15-.08-.31-.08-.46,0-.04,.14-.09,.22-.13,.09,.23,.04,.42-.14,.59Z"/><path class="d" d="M159.08,284.99c-5.64-2.92-11.92-4.03-18.64-6.05,7.34-3.48,13.95-6.6,20.55-9.73,.93-.44,1.81-.5,2.87-.23,28.12,7.33,47.09,27.6,51.24,53.16,4.63,28.47-5.27,51.52-28.26,68.83-18.91,14.24-40.39,22.46-63.6,26.53-3.28,.58-2.44-1.47-2.44-3-.03-25.85-.02-51.7-.02-77.55,0-18.86,.04-37.71-.06-56.57-.01-2.48,.67-3.73,3.03-4.72,5.15-2.15,10.13-4.7,15.93-7.44v136.03c10.44-3.43,19.77-8.34,28.5-14.33,11.61-7.96,21.44-17.58,26.22-31.25,5.54-15.85,5.55-31.5-2.51-46.67-.14-.94-.61-1.68-1.33-2.27l-.46-.86c-.66-1.34-1.28-2.7-2.54-3.62h0c-.76-1.45-1.7-2.73-3.05-3.67l-.04-.04c-.24-.72-.73-1.2-1.42-1.5l-.02-.03c-1.04-1.72-2.48-3.05-4.21-4.05,0,0,.06,.12,.06,.12l-.99-.8s.16,.15,.16,.15c-.31-.29-.63-.58-.94-.87l-.85-.55c-.99-1.14-2.21-1.95-3.63-2.44-.22-.56-.72-.63-1.22-.66-.43-.7-1.07-1.06-1.85-1.22-1.09-.79-2.18-1.56-3.57-1.74-.66-.71-1.47-1.13-2.43-1.26-.24-.06-.48-.12-.72-.19-.59-.67-1.39-.83-2.21-.93-.38-.54-.94-.6-1.53-.58Z"/><path class="q" d="M82.27,409.53c-3.7,.57-8.87-2-10.36-4.96-.17-.33-.27-.78-.54-.96-5.79-3.7-6.05-9.81-6.89-15.67-.12-.85-.23-1.9-.76-2.47-3.68-3.97-3.89-9.42-6.07-14.04-3.7-7.8,.07-20.56,6.52-26.49,4.09-3.76,8.75-5.34,13.94-6.22,2.2-.37,2.21,1.14,2.17,2.52-.1,2.98-.92,5.9-.73,8.93,.18,2.9,1.21,3.49,3.8,2.1,2.41-1.29,4.91-2.58,7.53-3.27,4.97-1.31,7.17-4.39,7.52-9.38,.32-4.65,1.55-9,4.69-12.75,3.88-4.66,8.77-6.26,14.59-5.81,1.5,.12,2.28,.88,2.33,2.37,.04,1.12,.05,2.25,.05,3.37,0,29.34,0,58.68,.03,88.02,0,2.09-.78,4.48,2.45,5.48,1.64,.51,.23,1.58-.55,2.06-3.98,2.43-8.34,3.29-12.94,2.8-4.21-.45-8.4-1.11-12.61-1.54-6.2-.62-10.64-3.68-13.73-9.08-.94-1.64-.46-3.11-.42-5.01Z"/><path class="h" d="M162.82,286.49c.24,.06,.48,.12,.72,.19,.45,1.12,1.37,1.31,2.43,1.26,1.39,.18,2.48,.95,3.57,1.74,.34,.84,.99,1.18,1.85,1.22,.51,.04,1,.1,1.22,.66-.01,2.63,1.89,2.42,3.63,2.44,.28,.18,.57,.37,.85,.55,.31,.29,.63,.58,.94,.87,0,0-.16-.15-.15-.15,.33,.27,.66,.53,.98,.8,0,0-.06-.12-.07-.12,.07,2.73,2.28,3.25,4.21,4.05,0,0,.02,.03,.02,.03,.18,.77,.66,1.27,1.42,1.5,0,0,.04,.04,.04,.04-.79,1.11-3.29,1.21-2.43,3.21,.79,1.83,2.56,.91,3.99,.65,.49-.09,.99-.14,1.48-.2,0,0,0,.01,0,.01-.03,.74-.07,1.48-.07,2.22,0,.83-.71,1.88,.12,2.43,1.08,.72,1.68-.61,2.5-1.03,.15,.29,.31,.58,.46,.86,0,1.02,.25,1.89,1.33,2.27,8.05,15.17,8.05,30.82,2.51,46.67-4.78,13.67-14.61,23.29-26.22,31.25-8.73,5.99-18.06,10.9-28.5,14.33v-80.25c1.85,.72,1.71,2.45,2.22,3.97,.93,2.78,1.11,7.26,4.93,6.65,2.31-.37,1.61-4.82,2.46-7.33,2.52-7.4-1.47-14.82,.59-22.21,.71-2.55,1.5-5.01,2.81-7.23,1.91-3.24,3.85-6.37,3.44-10.4-.2-2,1.3-2.45,2.96-2.47,.59-.03,1.15,.03,1.53,.58,.56,.72,1.34,.93,2.21,.93Zm-10.87,48.45c-.16,2.5,1.11,4.88,.06,6.87-2.12,3.99-.77,7.85,.1,11.66,.52,2.28,.93,5.33,4.1,5.61,3.65,.33,2.83-3.28,3.69-5.15,1.43-3.12,1.03-6.9-1.3-9.08-2.2-2.05-3.27-4.19-4.03-6.84-.33-1.14-.57-2.47-2.61-3.08Zm24.6-37.38c-.54-.17-.88-.39-1.16-.32-.24,.06-.4,.44-.59,.68,.3,.13,.62,.38,.91,.35,.25-.02,.46-.37,.84-.71Z"/><path class="h" d="M38.63,340.47c2.07-.08,4.14,.85,6.23-.29,1.03-.56,2,.23,2.23,1.34,.6,2.93,1.15,5.87,1.57,8.83,.14,1.02-.68,2.49-1.59,1.24-2.36-3.26-6.05-2.42-9.07-3.49-3.18-1.13-4.53-4.08-2.73-6.91,.95-1.49,2.2-.69,3.36-.72Z"/><path class="h" d="M36.44,331.49c.25,2.32,.8,4.97-2.94,4.94-4.16-.03-6.14-1.94-6.17-5.7-.02-2.57,3.03-4.62,6.73-4.36,3.66,.26,2.52,2.91,2.38,5.12Z"/><path class="p" d="M249.16,263.99c.23,.48,.46,.96,.69,1.44-.23-.48-.46-.96-.69-1.44Z"/><path class="m" d="M522.7,248.29c2.31-4.2,1.77-9.3,4.25-13.44,6.31-2,11.48,.13,16.05,4.46-2.9,1.42-5.69,2.98-8.13,5.19-3.43,3.1-7.72,3.77-12.16,3.8Z"/><path class="b" d="M561.89,241.51c.86,.46,1.92,.73,2.54,1.41,2.63,2.88,5.18,3.28,7.83,.1,.16,2.41-.25,4.7-1.86,6.57-1.22,1.42-2.39,2.82-2.75,4.71-4.13-1.99-8.54-3.22-12.86-4.7-1.27-.44-2.72-.76-2.72-2.56,0-1.55,.92-2.5,2.15-3.22,2.37-1.38,4.79-2.6,7.67-2.31Z"/><path class="m" d="M567.65,254.3c.37-1.9,1.53-3.3,2.75-4.71,1.62-1.87,2.02-4.16,1.86-6.57,4.2,1.7,4.94,6.35,1.61,10.53-.68,.85-1.6,1.5-2.42,2.24-1.27-.49-2.54-.98-3.81-1.48Z"/><path class="i" d="M548.27,205.27c1.77-1.11,3.62-2.11,5.29-3.35,3.41-2.54,3.37-2.59,5.06,1.43-1.09,.99-.13,2.7-1.29,3.67-2.53-3.13-6.75,2.5-9.06-1.75Z"/><path class="i" d="M677.96,329.67c-.27,.37-.55,.73-.82,1.1,.27-.37,.55-.73,.82-1.1Z"/><path class="f" d="M494.18,262.52c0-2.05,.41-3.76,3.03-3.63,2.26,2.07,5.34,1.84,8,2.75,3.89,1.33,7.89,2.3,11.84,3.46,.56,.16,1.22,.41,1.14,1.36-8.45,1.38-16.4-.21-24.01-3.94Z"/><path class="f" d="M490.48,268.52c.01-.23,.02-.46,.03-.69,3.4-.44,6.31,1.3,9.41,2.15,7.42,2.02,14.37,5.41,22.24,7.27-1.33,1.38-2.45,.99-3.45,.77-8.16-1.79-16.34-3.54-24.18-6.52-1.6-.61-3.42-1-4.05-2.97Z"/><path class="f" d="M486.77,276.71c.5-.95,1-1.91,1.49-2.86,1.18,.08,2.64-.54,3.33,.94,.79,1.68,2.31,1.67,3.75,1.95,5.23,1.01,10.49,1.93,15.69,3.09,1.46,.32,3.96,.8,3.55,2.56-.49,2.1-3.06,1.31-4.54,.95-4.7-1.13-9.39-2.42-13.94-4.06-3.07-1.1-6.3-1.44-9.33-2.57Z"/><path class="f" d="M483.01,285.03c.24-.02,.48-.05,.72-.08,3.6,3.66,8.58,4.38,13.07,6.13,2.53,.99,5.12,1.85,8.12,2.94-1.59,1.79-3.14,1.61-4.63,1.12-4.97-1.65-9.87-3.49-14.87-5.05-2.82-.88-3.53-2.45-2.42-5.05Z"/><path class="f" d="M485.23,281.27c1.85-1.04,3.52-.4,5.31,.35,6.06,2.56,12.35,4.44,18.68,6.22,.69,.19,1.67,.26,1.59,1.21-.07,.9-.97,1.15-1.72,.92-7.7-2.32-15.5-4.33-22.88-7.61-.41-.18-.66-.72-.98-1.1h0Z"/><path class="f" d="M499.48,297.55c-6.69,.23-13.03-1.28-19.18-3.76,6.71-.36,12.92,1.85,19.18,3.76Z"/><path class="f" d="M497.97,255.06c-.68-3,1.65-1.97,3.01-2.25,3.53,1.79,7.62,2.19,11.15,4.35-5.21,1.9-9.52-1.16-14.15-2.1Z"/><path class="f" d="M491.35,302.34c-4.01,.96-7.77,.39-11.5-.35-1.19-.24-2.77-.8-2.44-2.28,.4-1.75,2.01-.96,3.11-.64,3.63,1.04,7.22,2.17,10.83,3.27Z"/><path class="m" d="M521.91,248.23c-.71-.68-.49-1.43-.16-2.19,.05,.73,.11,1.46,.16,2.19Z"/><path class="p" d="M301.87,286.89c.04,.3,.09,.59,.13,.89-.48,.03-1.08-.01-1.1-.55-.03-.75,.56-.45,.97-.34Z"/><path class="p" d="M298.52,291.76l-.54-.27c.18,.09,.36,.18,.54,.27,0,0,0,0,0,0Z"/><path class="k" d="M187.54,305.24c-.49,.07-.99,.11-1.48,.2-1.43,.26-3.21,1.18-3.99-.65-.86-2,1.64-2.1,2.43-3.21,1.35,.94,2.29,2.22,3.05,3.66Z"/><path class="k" d="M190.09,308.88c-.82,.41-1.42,1.74-2.5,1.03-.83-.55-.12-1.6-.12-2.43,0-.74,.05-1.48,.07-2.22,1.26,.92,1.88,2.28,2.54,3.62Z"/><path class="k" d="M183.01,300.01c-1.93-.81-4.14-1.32-4.21-4.05,1.74,1.01,3.17,2.33,4.21,4.05Z"/><path class="k" d="M176.25,294.01c-1.74-.02-3.65,.19-3.63-2.44,1.43,.49,2.64,1.31,3.63,2.44Z"/><path class="k" d="M165.97,287.94c-1.05,.05-1.98-.15-2.43-1.26,.96,.14,1.77,.55,2.43,1.26Z"/><path class="k" d="M191.89,312.02c-1.08-.38-1.33-1.25-1.33-2.27,.73,.59,1.19,1.34,1.33,2.27Z"/><path class="k" d="M171.39,290.91c-.86-.04-1.52-.39-1.85-1.22,.78,.16,1.43,.52,1.85,1.22Z"/><path class="k" d="M184.46,301.54c-.76-.23-1.24-.73-1.42-1.5,.69,.3,1.18,.78,1.42,1.5Z"/><path class="k" d="M162.82,286.49c-.87,0-1.65-.2-2.21-.93,.82,.1,1.62,.26,2.21,.93Z"/><path class="k" d="M178.04,295.43c-.31-.29-.63-.58-.94-.87,.31,.29,.63,.58,.94,.87Z"/><path class="k" d="M178.87,296.08c-.33-.27-.66-.53-.98-.8,.33,.27,.66,.53,.98,.8Z"/><path class="k" d="M151.94,334.94c2.03,.6,2.28,1.93,2.61,3.08,.76,2.65,1.84,4.78,4.03,6.84,2.33,2.18,2.73,5.96,1.3,9.08-.86,1.87-.04,5.47-3.69,5.15-3.16-.28-3.57-3.33-4.1-5.61-.87-3.81-2.22-7.67-.1-11.66,1.06-1.98-.22-4.37-.06-6.87Z"/><path class="k" d="M176.54,297.57c-.38,.34-.6,.69-.84,.71-.29,.03-.61-.22-.91-.35,.19-.24,.36-.62,.59-.68,.27-.07,.62,.16,1.16,.32Z"/></svg>